HIERARCHY
ROOT Hip
{
    OFFSET 0.0 0.0 0.0
    CHANNELS 6 Xposition Yposition Zposition Zrotation Xrotation Yrotation
    JOINT RightHip
    {
        OFFSET -6.542606559244554 0.0 0.0
        CHANNELS 3 Zrotation Xrotation Yrotation
        JOINT RightKnee
        {
            OFFSET 0.0 0.0 -23.02823253995495
            CHANNELS 3 Zrotation Xrotation Yrotation
            JOINT RightAnkle
            {
                OFFSET 0.0 0.0 -27.494365810787585
                CHANNELS 3 Zrotation Xrotation Yrotation
                End Site
                {
                    OFFSET 0.0 -10.997746324315035 0.0
                }
            }
        }
    }
    JOINT LeftHip
    {
        OFFSET 6.542606559244554 0.0 0.0
        CHANNELS 3 Zrotation Xrotation Yrotation
        JOINT LeftKnee
        {
            OFFSET 0.0 0.0 -23.02823253995495
            CHANNELS 3 Zrotation Xrotation Yrotation
            JOINT LeftAnkle
            {
                OFFSET 0.0 0.0 -27.494365810787585
                CHANNELS 3 Zrotation Xrotation Yrotation
                End Site
                {
                    OFFSET 0.0 -10.997746324315035 0.0
                }
            }
        }
    }
    JOINT Spine
    {
        OFFSET 0.0 0.0 19.109671559670222
        CHANNELS 3 Zrotation Xrotation Yrotation
        JOINT Thorax
        {
            OFFSET 0.0 0.0 22.024536852947453
            CHANNELS 3 Zrotation Xrotation Yrotation
            JOINT Neck
            {
                OFFSET 0.0 0.0 2.791699693308295
                CHANNELS 3 Zrotation Xrotation Yrotation
                JOINT Head
                {
                    OFFSET 0.0 0.0 9.454494295974149
                    CHANNELS 3 Zrotation Xrotation Yrotation
                    End Site
                    {
                        OFFSET -3.78179771838966 0.0 0.0
                    }
                }
            }
            JOINT LeftShoulder
            {
                OFFSET 11.790431298389517 0.0 0.0
                CHANNELS 3 Zrotation Xrotation Yrotation
                JOINT LeftElbow
                {
                    OFFSET 22.142788314077933 0.0 0.0
                    CHANNELS 3 Zrotation Xrotation Yrotation
                    JOINT LeftWrist
                    {
                        OFFSET 12.308158142996586 0.0 0.0
                        CHANNELS 3 Zrotation Xrotation Yrotation
                        End Site
                        {
                            OFFSET 4.923263257198634 0.0 0.0
                        }
                    }
                }
            }
            JOINT RightShoulder
            {
                OFFSET -11.790431298389517 0.0 0.0
                CHANNELS 3 Zrotation Xrotation Yrotation
                JOINT RightElbow
                {
                    OFFSET -22.142788314077933 0.0 0.0
                    CHANNELS 3 Zrotation Xrotation Yrotation
                    JOINT RightWrist
                    {
                        OFFSET -12.308158142996586 0.0 0.0
                        CHANNELS 3 Zrotation Xrotation Yrotation
                        End Site
                        {
                            OFFSET -4.923263257198634 0.0 0.0
                        }
                    }
                }
            }
            JOINT Nose
            {
                OFFSET 0.0 0.0 8.852197216540842
                CHANNELS 3 Zrotation Xrotation Yrotation
                End Site
                {
                    OFFSET -3.540878886616338 0.0 0.0
                }
            }
        }
    }
}
MOTION
Frames: 12
Frame Time: 0.03333333333333333
0.856496701874937 44.293150437820316 8.532051640380105 -1.0830765560602373 -3.2273415298869543 2.0085658251388017 -21.927194450838375 -7.137088043511384 -0.4368143159286198 3.9855991444080243 20.986924713604868 0.4553873423572153 3.1805546814635168e-15 -1.5964893615939918e-15 4.431148119526917e-32 18.04819689402795 -3.901962046058496 -0.11692285026001038 -1.3286471298155036 15.124003242864566 -0.04694451063334822 0.0 0.0 1.9878466759146977e-16 2.5333654872629133e-17 10.233361353849295 -2.829277288948538e-16 6.980261018863723 0.055849146799517295 1.0297445342228493 -3.881279394736787 -6.744941884615787 -15.059280567225843 -3.975693351829396e-16 -2.4848083448933725e-17 -1.1181637552020177e-16 -66.87791817731825 32.557789296121825 -6.97960781299481 -4.383839698992207e-15 -1.882229443384564e-15 -133.52685155374786 -3.1805546814635168e-15 0.0 0.0 102.45761603896672 47.52055110260965 4.35003296463646 8.360777861823408e-15 -3.3203641666961032e-15 46.68040299215682 0.0 0.0 0.0 -7.951386703658792e-16 3.103527865816518e-33 -4.472655020808071e-16
0.9010001401984272 46.182136850501685 8.134830340888362 0.5947628290254792 -3.2221940225020793 1.4502547860669612 -24.959919598992837 -6.689007926492548 -0.8209497356448675 3.8921584098947086 18.23860939337814 0.5178593833271167 0.0 0.0 -1.987846675914698e-16 13.270274889954472 -4.377550438901099 -0.1773363248555069 -1.2600156796122515 16.166927609411946 1.5528586230987482 0.0 0.0 -1.987846675914698e-16 -2.180472992302505e-18 9.91776205777743 2.513062945746308e-17 4.7445852936449 0.0515111688441918 1.4158043222046968 -4.4687551811434085 -7.7065458721503 -23.276574154398965 -1.987846675914698e-16 1.4951892061876452e-33 -8.619178946348885e-16 -70.27933975256046 30.961414815253868 -5.727998581189593 1.8288221586818666e-14 7.790660555173178e-15 -133.85263702625932 -1.5902773407317588e-15 0.0 0.0 102.82095886072976 48.25653974038688 4.034596579208038 8.459037907234988e-15 -3.061388955718862e-15 50.20886356562456 6.3611093629270335e-15 -6.3611093629270335e-15 3.531125038440127e-31 0.0 0.0 -1.987846675914698e-16
0.8897873342143892 45.706199733061034 8.234911717332874 -0.16088381078429084 -3.29023521483056 0.5867659344880183 -27.197634436707617 -6.295773910595211 -0.5595263190204363 4.0892898273978995 15.79223123173027 0.7096816756505588 0.0 0.0 1.987846675914698e-16 11.861130319416839 -4.745480321384957 -0.6244016540492958 -0.4328045288871973 18.27017561568892 1.9042395498749929 0.0 0.0 1.987846675914698e-16 -4.0294225913087394e-17 10.407800065507816 -1.0549047172842168e-16 2.310924894255309 -0.06203082766411671 1.8448328840289367 -1.386261900870791 -7.255447953377623 -20.239806980531675 0.0 0.0 1.3267517682166995e-15 -70.09363249808972 29.227550436461218 -4.71141624319593 5.014499837646247e-15 -1.1692289796558998e-14 -133.5736896147537 -3.1805546814635168e-15 0.0 0.0 105.84156122912604 48.06617439954578 3.441399827892605 -1.1342522569044302e-14 -5.76212036312957e-15 53.86209386693856 0.0 0.0 0.0 3.975693351829396e-16 6.896728590703373e-34 1.987846675914698e-16
0.8977171621644692 46.042788046613765 8.164132993671561 0.9227969460072745 -3.2362951340226624 -0.01870370577586774 -29.00334998356113 -6.665521428929412 -0.27162865825070903 2.532708013071638 14.891533469844894 1.3071895837039218 0.0 0.0 1.987846675914698e-16 9.335285003156724 -5.15262441838363 -1.2180904566296002 -0.390567782413305 19.804388413051093 2.811312548496026 0.0 0.0 0.0 1.7119364222010153e-18 10.368792040273417 -1.8867943398941384e-17 -1.4506000572551407 -0.14735096023767172 1.5988472829715867 1.3590748751855266 -6.6822474732675525 -19.52666479882414 0.0 0.0 4.752195959608574e-16 -68.64753576668515 26.99083229131774 -4.132142329906523 -1.2318001797015288e-14 -1.1900787625209243e-14 -135.57667873214496 1.5902773407317584e-15 0.0 0.0 107.47050233067554 51.946553112788735 2.279929648241045 8.780035642375358e-15 -1.9591831902234893e-15 64.84210859829707 3.1805546814635168e-15 0.0 0.0 0.0 0.0 -6.212020862233431e-18
0.8904985671263974 45.7363886208784 8.228563514313244 1.096587844904928 -3.21654807037221 -0.8665422916233801 -29.540194938448337 -7.089199505162819 -0.06824833960763656 1.2811499899138636 14.71405564003064 1.952615165076675 0.0 0.0 -1.987846675914698e-16 9.264634644311561 -5.2890559582828045 -1.4248759576887147 -2.543525945990642 20.573302678548174 3.235516549971622 0.0 0.0 9.93923337957349e-17 -2.2690794365107975e-16 9.995461309057845 3.129220406733538e-16 -2.9797648585251153 -0.2579552005718024 2.1612632302677577 2.439889948970907 -6.632199802788274 -20.20577721148614 0.0 0.0 -1.5551405977297506e-15 -67.37667335599623 27.905813914546098 -3.556414364625432 7.348312134517535e-16 3.037574572718206e-16 -135.08249634725482 1.5902773407317584e-15 0.0 0.0 105.54150114165063 51.18148010335564 0.4045475467889229 1.7320064860943384e-15 1.7908373799680166e-14 78.95165183588378 0.0 0.0 0.0 0.0 0.0 0.0
0.8983024146669134 46.06762958845305 8.15890924538807 1.1596782290360532 -3.2162056609154246 -2.034163089387096 -29.48633220941956 -6.887528826237737 -0.29217572541885006 0.052233513910255484 12.806184159805904 1.5632463621428514 0.0 0.0 -9.93923337957349e-17 9.118963080408365 -6.111692442054816 -1.2362038999452283 -3.7326488451450115 22.214519818518877 4.299648491484156 0.0 0.0 0.0 1.6419025798512785e-17 10.289900492219026 -1.8235570023890022e-16 -6.617681385979165 -0.325200492703981 1.7924860257591781 5.773902330148709 -6.644647602384838 -19.210964532571193 0.0 0.0 7.326302104396553e-16 -62.06179700227337 29.198656233873738 -3.9191246781080356 1.2644176986029474e-15 7.39399065717276e-15 -135.39736071832235 -3.1805546814635168e-15 0.0 0.0 104.18037936763194 56.192500459016266 -1.5144195090001031 2.3837577271108837e-14 1.3047323856401301e-14 98.49963107415027 6.361109362927035e-15 -6.361109362927035e-15 3.531125038440127e-31 0.0 0.0 0.0
0.8808805742115203 45.3281447049498 8.314410176685245 1.3939224271855741 -3.3623317860621023 -3.1360721878832103 -30.388499296338196 -6.130543143209922 -0.09690975382745422 -0.6203384868127643 10.594001299714066 1.6676172384978543 0.0 0.0 -1.987846675914698e-16 8.499539963164613 -6.219587261940893 -1.359776221991066 -4.419871668797458 22.895581369107838 4.533317774863152 0.0 0.0 0.0 -7.012921884299642e-18 10.611268129041777 7.551626582285442e-17 -6.702965247582232 -0.49765905631139046 2.706264242779774 5.0131239357914765 -6.003631541804419 -20.271776304630887 -1.863606258670029e-17 -1.987846675914698e-16 2.1138342240268698e-15 -61.27576021254096 26.755492149455378 -4.968515140011178 6.8735028368072784e-15 -1.0968136469194534e-14 -137.090278705501 0.0 0.0 0.0 90.11401900261315 55.38220989221509 -1.817969879223154 1.0242564106967672e-14 -7.546173190639703e-15 107.23839763173369 0.0 0.0 0.0 0.0 0.0 0.0
0.8826733564957099 45.40424087871314 8.298408462313082 1.897335643980868 -3.6518601109536126 -3.7049787414305677 -31.403766060595906 -5.4831421712457775 -0.18704120633078905 -0.24464363039352438 9.314401703808834 1.6818453363176415 0.0 0.0 -2.4848083448933725e-16 7.498402117021187 -6.475609144077282 -1.361639430105055 -4.425997836464097 24.36126124282226 4.828670987814057 1.3470173028717525e-36 1.5530052155583576e-18 -9.939233379573489e-17 -7.928748198402836e-16 10.907926101438568 -6.158373515462168e-17 -7.915552891467131 -0.569642297827792 2.905795796552793 4.635838796113425 -5.880672960492322 -18.863465575269625 0.0 0.0 1.2656992506800616e-15 -60.45044237919299 25.70390571954347 -5.228154055422012 -1.4328966229385946e-14 7.961473888004956e-15 -136.3026524536218 -1.5902773407317584e-15 0.0 0.0 62.530859630268566 53.27322095175134 4.295484050975627 -9.919494506470849e-15 -1.6302669710208702e-14 117.36246290238729 3.1805546814635176e-15 -6.361109362927035e-15 1.5902773407317592e-15 0.0 0.0 -4.969616689786745e-17
0.8986479334565021 46.08229542829479 8.155825271929624 1.8495832770773302 -3.8308021430748997 -4.172597747767614 -31.39655705078494 -5.433627242211952 -0.5492099417427675 0.49867128703778946 9.348230662278493 1.2366350080906694 0.0 0.0 3.4787316828507215e-16 6.802104039550199 -6.384933224362253 -1.150760915266653 -3.6585864345487797 24.293954751877227 5.211155197618795 0.0 0.0 0.0 8.806573844747979e-16 11.316455431009613 -8.238603101329218e-16 -7.50830957486339 -0.6533310527767936 3.413312797720431 3.8132111040602146 -6.15257390967222 -13.119834097720764 0.0 0.0 -5.451048306609836e-16 -59.98060788430675 26.945004082721848 -5.148935269075571 1.166539377942307e-14 -8.774128058871612e-15 -132.61283105616693 1.5902773407317584e-15 0.0 0.0 39.68210709491176 43.95546909947104 10.139237795529281 3.8508084349461494e-15 5.3069735956485065e-15 136.14224186542307 0.0 0.0 0.0 0.0 0.0 0.0
0.8936993899968668 45.87225027875226 8.19999414826092 2.73831693870939 -4.10943391188216 -4.5077000363242625 -32.17285741592248 -5.466430234402431 -0.4708767118166905 0.15438534606088428 9.776308078550533 1.7454417807712554 0.0 0.0 -3.975693351829396e-16 5.003892707175261 -5.893432138580728 -1.2940894060098145 -2.1888251454116845 23.872075499042968 4.617362204498867 0.0 0.0 0.0 7.921869176368523e-16 11.606248058275071 6.934543335443336e-17 -7.958563070140646 -0.641210879181643 3.5619102428023375 3.2456696894251147 -5.2698527838143026 -11.85993987927067 0.0 0.0 5.218097524276082e-16 -57.732591189082704 28.444821762015295 -5.8324512670959745 -1.2715512062245941e-14 1.6430411814055886e-15 -135.23564914948878 0.0 0.0 0.0 33.220365612180096 36.92289959043208 11.239233253323063 -2.2086626208325944e-15 -1.2754092217081141e-14 139.11141456614095 0.0 0.0 -3.1805546814635168e-15 0.0 0.0 0.0
0.8864020056841115 45.56250657502516 8.265127912949687 2.4944852845793264 -4.141173639803509 -4.435704648998127 -31.571904194893982 -5.3899287754203495 -0.4879954667371288 0.150718932592829 10.194916505332861 1.9180320981768813 3.1805546814635164e-15 -5.963540027744093e-16 8.94531004161614e-16 5.001138398652622 -6.1384188198567395 -1.3264647711095083 -1.265375205646692 24.36880787856708 4.192292915749621 0.0 0.0 0.0 -2.5527985765238e-17 11.553724489759889 2.5233182480389856e-16 -7.82712262621749 -0.6058702635089093 3.3955806751932966 3.7663050833035503 -5.377317975724084 -5.374943611751094 0.0 0.0 -1.8325461543588623e-16 -53.34467548079385 28.074566705397903 -6.196997209996035 2.3925423463510452e-14 -4.102063243705438e-15 -136.2427678367322 0.0 0.0 0.0 36.789563135914825 34.00299284307994 12.149005656367839 -8.520811681768497e-16 -1.3301689540020497e-14 137.9614471933748 0.0 0.0 0.0 0.0 0.0 0.0
0.8741830737137706 45.043863581607965 8.374189599383435 0.6977120938901589 -3.9282596351651704 -3.9759011039447536 -29.017713859164513 -5.41535703948545 -0.6709445361363472 -0.5186961303612899 11.000324233216176 1.7411929873355587 0.0 0.0 9.93923337957349e-17 7.3665928292333085 -6.844251163496739 -0.9825156772197675 -1.4235311011575231 25.194851530765963 3.726358463097787 0.0 0.0 0.0 1.5315364370882715e-16 11.442802093713132 4.653758178730681e-16 -5.884876146266796 -0.510903153465821 3.1995134835365313 4.162700168832371 -5.865539233089098 -4.904288975197207 0.0 0.0 -2.9507099095608797e-17 -48.81582447415265 22.551929379503054 -7.673601433792861 4.501470840989399e-15 1.5803792113686046e-15 -141.30962770463904 -1.5902773407317584e-15 0.0 0.0 44.428391500125905 26.753284703020643 11.117406319329751 3.260500288022434e-15 1.2399716496788238e-14 136.2851674553899 3.1805546814635168e-15 0.0 0.0 7.951386703658792e-16 3.4483642953516864e-34 4.969616689786745e-17
